<mxfile host="app.diagrams.net" modified="2021-01-11T10:53:56.790Z" agent="5.0 (Windows)" etag="xJfOtSbh8WitPez70pVX" version="14.1.8" type="github">
  <diagram id="E-PxSSMz-fql-FZN41DF" name="Page-1">
    <mxGraphModel dx="1038" dy="547" grid="1" gridSize="10" guides="1" tooltips="1" connect="1" arrows="1" fold="1" page="1" pageScale="1" pageWidth="1169" pageHeight="827" math="0" shadow="0">
      <root>
        <mxCell id="0" />
        <mxCell id="1" parent="0" />
        <mxCell id="8zCbODHDg0pGG4-mf90O-1" value="PROCESSING OF PETTY CASH FLOATMENT" style="swimlane;html=1;childLayout=stackLayout;resizeParent=1;resizeParentMax=0;horizontal=1;startSize=20;horizontalStack=0;" vertex="1" parent="1">
          <mxGeometry x="160" y="20" width="890" height="450" as="geometry" />
        </mxCell>
        <mxCell id="8zCbODHDg0pGG4-mf90O-2" value="ACO" style="swimlane;html=1;startSize=20;horizontal=0;" vertex="1" parent="8zCbODHDg0pGG4-mf90O-1">
          <mxGeometry y="20" width="890" height="180" as="geometry" />
        </mxCell>
        <mxCell id="8zCbODHDg0pGG4-mf90O-5" value="Start" style="rounded=1;whiteSpace=wrap;html=1;" vertex="1" parent="8zCbODHDg0pGG4-mf90O-2">
          <mxGeometry x="70" y="20" width="80" height="40" as="geometry" />
        </mxCell>
        <mxCell id="8zCbODHDg0pGG4-mf90O-8" value="Complete petty cash requisition form " style="rounded=0;whiteSpace=wrap;html=1;" vertex="1" parent="8zCbODHDg0pGG4-mf90O-2">
          <mxGeometry x="50" y="110" width="120" height="60" as="geometry" />
        </mxCell>
        <mxCell id="8zCbODHDg0pGG4-mf90O-7" value="" style="edgeStyle=orthogonalEdgeStyle;rounded=0;orthogonalLoop=1;jettySize=auto;html=1;" edge="1" parent="8zCbODHDg0pGG4-mf90O-2" source="8zCbODHDg0pGG4-mf90O-5" target="8zCbODHDg0pGG4-mf90O-8">
          <mxGeometry relative="1" as="geometry">
            <mxPoint x="110" y="130" as="targetPoint" />
          </mxGeometry>
        </mxCell>
        <mxCell id="8zCbODHDg0pGG4-mf90O-13" value="Raise payment voucher" style="whiteSpace=wrap;html=1;rounded=0;" vertex="1" parent="8zCbODHDg0pGG4-mf90O-2">
          <mxGeometry x="210" y="110" width="120" height="60" as="geometry" />
        </mxCell>
        <mxCell id="8zCbODHDg0pGG4-mf90O-15" value="Withdraw cash and record in petty cash book" style="whiteSpace=wrap;html=1;rounded=0;" vertex="1" parent="8zCbODHDg0pGG4-mf90O-2">
          <mxGeometry x="400" y="110" width="120" height="60" as="geometry" />
        </mxCell>
        <mxCell id="8zCbODHDg0pGG4-mf90O-16" value="" style="edgeStyle=orthogonalEdgeStyle;rounded=0;orthogonalLoop=1;jettySize=auto;html=1;" edge="1" parent="8zCbODHDg0pGG4-mf90O-2" source="8zCbODHDg0pGG4-mf90O-13" target="8zCbODHDg0pGG4-mf90O-15">
          <mxGeometry relative="1" as="geometry" />
        </mxCell>
        <mxCell id="8zCbODHDg0pGG4-mf90O-17" value="Apply for recoupment after float is exhausted and obtain approval as above" style="whiteSpace=wrap;html=1;rounded=0;" vertex="1" parent="8zCbODHDg0pGG4-mf90O-2">
          <mxGeometry x="600" y="110" width="130" height="60" as="geometry" />
        </mxCell>
        <mxCell id="8zCbODHDg0pGG4-mf90O-18" value="" style="edgeStyle=orthogonalEdgeStyle;rounded=0;orthogonalLoop=1;jettySize=auto;html=1;" edge="1" parent="8zCbODHDg0pGG4-mf90O-2" source="8zCbODHDg0pGG4-mf90O-15" target="8zCbODHDg0pGG4-mf90O-17">
          <mxGeometry relative="1" as="geometry" />
        </mxCell>
        <mxCell id="8zCbODHDg0pGG4-mf90O-3" value="MFA" style="swimlane;html=1;startSize=20;horizontal=0;" vertex="1" parent="8zCbODHDg0pGG4-mf90O-1">
          <mxGeometry y="200" width="890" height="130" as="geometry" />
        </mxCell>
        <mxCell id="8zCbODHDg0pGG4-mf90O-9" value="Authorize Requisition form" style="whiteSpace=wrap;html=1;rounded=0;" vertex="1" parent="8zCbODHDg0pGG4-mf90O-3">
          <mxGeometry x="50" y="40" width="120" height="60" as="geometry" />
        </mxCell>
        <mxCell id="8zCbODHDg0pGG4-mf90O-4" value="CEO" style="swimlane;html=1;startSize=20;horizontal=0;" vertex="1" parent="8zCbODHDg0pGG4-mf90O-1">
          <mxGeometry y="330" width="890" height="120" as="geometry" />
        </mxCell>
        <mxCell id="8zCbODHDg0pGG4-mf90O-11" value="Approve requisition form" style="whiteSpace=wrap;html=1;rounded=0;" vertex="1" parent="8zCbODHDg0pGG4-mf90O-4">
          <mxGeometry x="50" y="50" width="120" height="60" as="geometry" />
        </mxCell>
        <mxCell id="8zCbODHDg0pGG4-mf90O-10" value="" style="edgeStyle=orthogonalEdgeStyle;rounded=0;orthogonalLoop=1;jettySize=auto;html=1;" edge="1" parent="8zCbODHDg0pGG4-mf90O-1" source="8zCbODHDg0pGG4-mf90O-8" target="8zCbODHDg0pGG4-mf90O-9">
          <mxGeometry relative="1" as="geometry" />
        </mxCell>
        <mxCell id="8zCbODHDg0pGG4-mf90O-12" value="" style="edgeStyle=orthogonalEdgeStyle;rounded=0;orthogonalLoop=1;jettySize=auto;html=1;" edge="1" parent="8zCbODHDg0pGG4-mf90O-1" source="8zCbODHDg0pGG4-mf90O-9" target="8zCbODHDg0pGG4-mf90O-11">
          <mxGeometry relative="1" as="geometry" />
        </mxCell>
        <mxCell id="8zCbODHDg0pGG4-mf90O-14" value="" style="edgeStyle=orthogonalEdgeStyle;rounded=0;orthogonalLoop=1;jettySize=auto;html=1;" edge="1" parent="8zCbODHDg0pGG4-mf90O-1" source="8zCbODHDg0pGG4-mf90O-11" target="8zCbODHDg0pGG4-mf90O-13">
          <mxGeometry relative="1" as="geometry" />
        </mxCell>
        <mxCell id="8zCbODHDg0pGG4-mf90O-20" value="" style="edgeStyle=orthogonalEdgeStyle;rounded=0;orthogonalLoop=1;jettySize=auto;html=1;entryX=0;entryY=0.5;entryDx=0;entryDy=0;" edge="1" parent="1" source="8zCbODHDg0pGG4-mf90O-17" target="8zCbODHDg0pGG4-mf90O-21">
          <mxGeometry relative="1" as="geometry">
            <mxPoint x="975" y="180" as="targetPoint" />
          </mxGeometry>
        </mxCell>
        <mxCell id="8zCbODHDg0pGG4-mf90O-21" value="End" style="rounded=1;whiteSpace=wrap;html=1;" vertex="1" parent="1">
          <mxGeometry x="970" y="160" width="70" height="40" as="geometry" />
        </mxCell>
      </root>
    </mxGraphModel>
  </diagram>
</mxfile>
